<svg xmlns="http://www.w3.org/2000/svg" viewBox="0 0 254.5 91.7"><path d="M89.8 29.6l-7.5 15.7-7.4-15.7zm129.5 27.5h9.2l-13-27.6H205l-10.9-.1-10.7.1 18.8 39.9h10.6L207 57.1h12.3zm-20.8-18h11l4 8.5h-11l-4-8.5zm-117 30.3l18.8-39.9 4.1.1 10.2 21.6 10.2-21.6h10.5l-18.8 39.8h-3.9l-10.3-21.7-10.2 21.7zm45.6 0l10-21.1 10 21.1zM64.3 29.6H40.7v39.9H71l6-12.9-12.7-27zm.6 30.3H50.3V39.1h8l8.2 17.5-1.6 3.3zm106.8 9.5l10-21.1 10 21.1zm8.2-39.8h-10.6l-9.9 21.1-10-21.1h-10.6l18.8 39.8h3.5z" fill="#fff"/></svg>