<svg xmlns="http://www.w3.org/2000/svg" viewBox="0 0 66.8 20.2"><path d="M58.2 8.7h.2l7.9-2.8c.4-.1.6-.5.4-.9-.1-.4-.5-.6-.9-.4l-7.9 2.8c-.4.1-.6.5-.4.9.1.2.4.4.7.4zm7.9 6.1c.3 0 .6-.2.7-.5.1-.4-.1-.8-.5-.9l-8-2.7c-.4-.1-.8.1-.9.5-.1.4.1.8.5.9l8 2.7h.2zm-6.5 3.6c.2 0 .4-.1.5-.2.3-.3.3-.7 0-1l-2.8-2.7c-.3-.3-.7-.3-1 0-.3.3-.3.7 0 1l2.8 2.7c.1.2.3.2.5.2zM57 4.9c.2 0 .3-.1.5-.2l2.8-2.6c.3-.3.3-.7.1-1-.3-.3-.7-.3-1 0l-2.8 2.6c-.3.3-.3.7-.1 1 .1.2.3.2.5.2zM1.8 4l15.5-.3c2.1.1 2.3-1.6 2.3-1.6V.3h27.1c.5 0 1 .3 1.3.7.3-.6 1-1 1.7-1 1.1 0 1.9.9 1.9 1.9v16.5c0 1.1-.9 1.9-1.9 1.9-.7 0-1.4-.4-1.7-1-.3.4-.8.7-1.3.7H19.6v-1.8s-.2-1.7-2.3-1.6l-15.5-.4c-1 0-1.8-.7-1.8-1.7V5.7C0 4.8.8 4 1.8 4z" fill="#78d64b"/><path d="M47.9 18c.1 0 .2-.1.2-.2V3.1c0-.1-.1-.2-.2-.2s-.2.1-.2.2v14.7c0 .1.1.2.2.2z" fill="#b9f99b"/></svg>